<?xml version="1.0" encoding="UTF-8" standalone="no"?>
<svg
   xmlns:dc="http://purl.org/dc/elements/1.1/"
   xmlns:cc="http://creativecommons.org/ns#"
   xmlns:rdf="http://www.w3.org/1999/02/22-rdf-syntax-ns#"
   xmlns:svg="http://www.w3.org/2000/svg"
   xmlns="http://www.w3.org/2000/svg"
   xmlns:sodipodi="http://sodipodi.sourceforge.net/DTD/sodipodi-0.dtd"
   xmlns:inkscape="http://www.inkscape.org/namespaces/inkscape"
   width="23.999999999999996"
   height="23.999999999999996"
   version="1.1"
   id="svg17"
   sodipodi:docname="redEmpty.svg"
   inkscape:version="0.92.1 r15371">
  <metadata
     id="metadata23">
    <rdf:RDF>
      <cc:Work
         rdf:about="">
        <dc:format>image/svg+xml</dc:format>
        <dc:type
           rdf:resource="http://purl.org/dc/dcmitype/StillImage" />
        <dc:title></dc:title>
      </cc:Work>
    </rdf:RDF>
  </metadata>
  <defs
     id="defs21">
    <clipPath
       clipPathUnits="userSpaceOnUse"
       id="clipPath4575">
      <rect
         style="opacity:1;fill:#7cf04f;fill-opacity:1;stroke:none;stroke-width:36.82393646;stroke-linecap:round;stroke-linejoin:miter;stroke-miterlimit:4;stroke-dasharray:none;stroke-dashoffset:0;stroke-opacity:1"
         id="rect4577"
         width="18.384777"
         height="9.3691645"
         x="-19.224466"
         y="16.133436"
         ry="3.8834901" />
    </clipPath>
    <clipPath
       clipPathUnits="userSpaceOnUse"
       id="clipPath4575-5">
      <rect
         style="opacity:1;fill:#7cf04f;fill-opacity:1;stroke:none;stroke-width:36.82393646;stroke-linecap:round;stroke-linejoin:miter;stroke-miterlimit:4;stroke-dasharray:none;stroke-dashoffset:0;stroke-opacity:1"
         id="rect4577-2"
         width="18.384777"
         height="9.3691645"
         x="-19.224466"
         y="16.133436"
         ry="3.8834901" />
    </clipPath>
  </defs>
  <sodipodi:namedview
     pagecolor="#ffffff"
     bordercolor="#666666"
     borderopacity="1"
     objecttolerance="10"
     gridtolerance="10"
     guidetolerance="10"
     inkscape:pageopacity="0"
     inkscape:pageshadow="2"
     inkscape:window-width="1920"
     inkscape:window-height="1001"
     id="namedview19"
     showgrid="false"
     inkscape:zoom="11.313709"
     inkscape:cx="-2.3062413"
     inkscape:cy="25.493386"
     inkscape:window-x="-9"
     inkscape:window-y="-9"
     inkscape:window-maximized="1"
     inkscape:current-layer="svg17" />
  <g
     id="g5"
     transform="matrix(0.8172851,0,0,0.80525293,-11.202152,-1.5201245)">
    <title
       id="title2">background</title>
    <rect
       x="-1"
       y="-1"
       width="3.148087"
       height="3.148087"
       id="canvas_background"
       style="fill:none" />
  </g>
  <path
     style="fill:#ca3939;fill-opacity:1;stroke-width:1.39613938"
     inkscape:connector-curvature="0"
     id="svg_3-7"
     d="M 11.476276,19.236834 3.5724709,11.819535 c 0,0 -0.243317,-0.437682 -0.243317,-0.904313 0,-0.466632 0.316392,-0.777722 0.790983,-0.777722 h 4.666798 V 1.5825742 c 0,-0.466634 0.474589,-0.77772202 0.870079,-0.77772202 h 4.7458951 c 0.474592,0 0.711887,0.31108802 0.711887,0.77772202 V 10.1375 h 4.824993 c 0.474588,0 0.996556,0.51364 0.996556,0.980272 0,0.466631 -0.474587,0.777719 -0.474587,0.777719 l -7.878107,7.341343 c -0.316394,0.311088 -0.790984,0.311088 -1.107375,0 z m 6.565154,-7.543893 h -4.5086 V 2.3602932 l -3.163932,-0.04878 V 11.692942 H 6.0184939 l 6.0114701,5.910678 z"
     stroke="null"
     sodipodi:nodetypes="ccsscsssscssccccccccccc" />
  <path
     style="opacity:1;fill:#7cf04f;fill-opacity:1;stroke:none;stroke-width:1.58764422;stroke-linecap:round;stroke-linejoin:miter;stroke-miterlimit:4;stroke-dasharray:none;stroke-dashoffset:0;stroke-opacity:1"
     d="m -8.866529,-0.64845368 2.4e-5,-5.00634452 -2.384757,-0.011177 -2.384758,-0.011177 0.590556,-0.5592122 c 0.324807,-0.3075672 1.8031,-1.7136987 3.285096,-3.1247373 l 2.694538,-2.5655243 3.283165,3.1247369 3.28316697,3.1247369 -2.46450897,0.011165 -2.464508,0.011165 V -0.68459668 4.285629 l -0.311568,0.02548 c -0.171362,0.01402 -0.94492,0.03027 -1.719018,0.03613 l -1.407451,0.01066 z"
     id="path4527"
     inkscape:connector-curvature="0" />
  <path
     style="fill:#36274b;stroke-width:0"
     inkscape:connector-curvature="0"
     id="svg_1-23"
     d="m -14.343373,-47.994718 -9.927007,9.115283 c 0,0 -0.198736,0.295398 -0.265536,0.834833 -0.08795,0.710253 0.311052,1.208599 0.705701,1.459938 l 5.945666,0.02966 0.06161,9.89192 c 0.0035,0.56382 0.614042,0.939718 1.125743,0.939718 h 6.140418 c 0.6140414,0 0.9210624,-0.375886 0.9210624,-0.939718 v -10.010583 l 6.242758,0.02966 c 0.259789,-0.130569 1.038899,-0.751195 0.930991,-1.340211 -0.118801,-0.64848 -0.521629,-0.895221 -0.521629,-0.895221 l -9.9270084,-9.115279 c -0.409361,-0.375888 -1.023403,-0.375888 -1.432767,0 z m 8.4942454,9.115283 h -5.8333974 v 11.276639 h -4.093611 v -11.276639 h -5.628717 l 7.777862,-7.141871 z"
     stroke="null"
     sodipodi:nodetypes="ccsccssssccscsccccccccc" />
  <rect
     style="fill:#7cf04f;fill-opacity:1;stroke-width:1.00771058"
     stroke-opacity="null"
     x="-16.607418"
     y="-44.415756"
     width="6.0256577"
     height="17.250345"
     id="svg_6-9"
     stroke="null" />
  <rect
     style="fill:#7cf04f;fill-opacity:1;stroke-width:0.94520551"
     stroke-opacity="null"
     x="-20.871016"
     y="-40.526005"
     width="14.298867"
     height="3.0024953"
     id="svg_7-7"
     stroke="null" />
  <rect
     style="fill:#7cf04f;fill-opacity:1;stroke-width:0.83498919"
     stroke="null"
     stroke-opacity="null"
     x="-18.692343"
     y="-42.274471"
     width="9.9376059"
     height="2.0340841"
     id="svg_9-8" />
  <rect
     style="fill:#36274b;stroke-width:1.05386484"
     stroke="null"
     stroke-opacity="null"
     fill-opacity="null"
     x="-14.738529"
     y="-45.928844"
     width="2.3947062"
     height="1.1886336"
     id="svg_10-1" />
  <path
     style="fill:#7cf04f;stroke-width:1.55033088"
     inkscape:connector-curvature="0"
     id="svg_3-5"
     d="m -14.275729,-47.157654 -8.785113,8.228596 c 0,0 -0.270448,0.485556 -0.270448,1.003226 0,0.517673 0.351671,0.862789 0.87918,0.862789 h 5.187167 v 9.490658 c 0,0.517673 0.527507,0.862788 0.967097,0.862788 h 5.275082 c 0.527512,0 0.791265,-0.345115 0.791265,-0.862788 v -9.490658 h 5.3630014 c 0.527507,0 1.107678,-0.569821 1.107678,-1.087493 0,-0.517671 -0.527507,-0.862785 -0.527507,-0.862785 l -8.7565504,-8.144333 c -0.351673,-0.345115 -0.879183,-0.345115 -1.230852,0 z m 7.2971974,8.369038 h -5.0113294 v 10.353445 l -3.516723,0.05412 v -10.407566 h -4.835493 l 6.681774,-6.557184 z"
     stroke="null"
     sodipodi:nodetypes="ccsscsssscssccccccccccc" />
  <path
     style="fill:#7cf04f;fill-opacity:1;stroke-width:0"
     inkscape:connector-curvature="0"
     id="svg_1-2-9"
     d="m -13.918006,-45.376656 -6.435294,5.526896 c 0,0 -0.128834,0.17911 -0.172137,0.506187 -0.05701,0.430651 0.201642,0.732814 0.457478,0.88521 l 3.854346,0.01798 0.03994,5.997798 c 0.0023,0.341864 0.39806,0.569782 0.729776,0.569782 h 3.980596 c 0.398059,0 0.597089,-0.227913 0.597089,-0.569782 v -6.069744 l 4.0469394,0.01798 c 0.168411,-0.07917 0.673478,-0.455476 0.603525,-0.812616 -0.07701,-0.393191 -0.338152,-0.542798 -0.338152,-0.542798 l -6.4352974,-5.526893 c -0.265371,-0.227913 -0.663431,-0.227913 -0.928807,0 z m 5.5064924,5.526896 H -12.19308 v 6.837398 h -2.65373 v -6.837398 h -3.64888 l 5.042088,-4.330351 z"
     stroke="null"
     sodipodi:nodetypes="ccsccssssccscsccccccccc" />
  <path
     id="svg_1-2-1-1"
     style="fill:#7cf04f;fill-opacity:1;stroke-width:0"
     d="m -10.583984,2.7519531 c -0.170201,0 -0.340401,0.086219 -0.476563,0.2578125 l -6.603515,8.3222654 c 0,0 -0.133298,0.269213 -0.177735,0.761719 -0.05851,0.648463 0.20817,1.10451 0.470703,1.333984 l 3.955078,0.02734 0.04102,9.03125 c 0.0023,0.514771 0.407647,0.857422 0.748047,0.857422 h 4.0839842 c 0.4084801,0 0.6132813,-0.342643 0.6132813,-0.857422 v -9.140625 l 4.1523437,0.02734 c 0.1728201,-0.119214 0.6928778,-0.684882 0.6210938,-1.222656 -0.07903,-0.592065 -0.3476563,-0.81836 -0.3476562,-0.81836 L -10.107422,3.0097656 c -0.136159,-0.1715933 -0.306362,-0.2578125 -0.476562,-0.2578125 z m 0,2.0605469 5.1738278,6.519531 H -9.2910156 V 21.628906 H -12.013672 V 11.332031 h -3.74414 z"
     clip-path="url(#clipPath4575-5)"
     inkscape:connector-curvature="0"
     transform="matrix(0.97023903,0,0,1,-3.1725256,-51.858028)" />
  <g
     transform="translate(-5.2824871,-32.459339)"
     id="g4508">
    <title
       id="title4505">Layer 1</title>
    <path
       style="fill:#ca3939"
       inkscape:connector-curvature="0"
       transform="rotate(-180,12.000001,12)"
       stroke="null"
       id="svg_1"
       d="M 11.454859,0.3 3.900763,10 c 0,0 -0.467264,0.4 -0.467264,1 0,0.6 0.311509,1 0.778773,1 h 4.59476 v 11 c 0,0.6 0.467264,1 0.85665,1 h 4.672637 c 0.467264,0 0.700896,-0.4 0.700896,-1 V 12 h 4.750514 c 0.467264,0 0.778773,-0.4 0.778773,-1 0,-0.6 -0.467264,-1 -0.467264,-1 L 12.545142,0.3 c -0.311509,-0.4 -0.778773,-0.4 -1.090283,0 z M 17.918673,10 H 13.479668 V 22 H 10.364577 V 10 H 6.081326 L 12,2.4 17.918674,10 Z" />
  </g>
  <path
     style="opacity:1;fill:#ca3939;fill-opacity:1;stroke:none;stroke-width:1.6274035;stroke-linecap:round;stroke-linejoin:miter;stroke-miterlimit:4;stroke-dasharray:none;stroke-dashoffset:0;stroke-opacity:1"
     d="m 9.0479724,14.644767 -2.955141,-2.904585 2.1485973,-0.01147 2.1485973,-0.01147 V 7.0330827 2.3489205 h 1.09798 c 0.603888,0 1.30989,0.012966 1.568893,0.028813 l 0.470913,0.028813 v 4.6553606 4.6553609 l 2.217961,0.01146 2.217961,0.01146 -2.95443,2.905767 c -1.624937,1.598172 -2.966076,2.905235 -2.980311,2.904585 -0.01423,-6.5e-4 -1.355693,-1.308246 -2.9810206,-2.905767 z"
     id="path10398"
     inkscape:connector-curvature="0" />
  <path
     style="opacity:1;fill:#ca3939;fill-opacity:1;stroke:none;stroke-width:1.6274035;stroke-linecap:round;stroke-linejoin:miter;stroke-miterlimit:4;stroke-dasharray:none;stroke-dashoffset:0;stroke-opacity:1"
     d="M 11.737948,19.390235 C 11.665028,19.35813 9.7915388,17.629021 7.5746388,15.547769 l -4.0307269,-3.784093 -0.09038,-0.292615 c -0.1794597,-0.581024 -0.092478,-1.00574 0.2456772,-1.199608 l 0.1721761,-0.09871 2.4638252,-7.27e-4 2.4638252,-7.27e-4 V 5.8388407 c 0,-3.7988318 0.00837,-4.3524866 0.067977,-4.4951396 C 8.9547292,1.1337655 9.0477354,1.0333716 9.2502653,0.93000428 9.405717,0.850665 9.5503217,0.8463272 12.034498,0.84648382 c 2.516587,1.5866e-4 2.625837,0.003562 2.761076,0.0860235 0.07745,0.0472221 0.166939,0.13166908 0.198874,0.18765998 0.04649,0.081502 0.06247,0.9918531 0.08016,4.5654133 l 0.0221,4.4636114 2.570546,0.0221 2.570546,0.0221 0.190355,0.133817 c 0.409046,0.287553 0.581276,0.744438 0.413727,1.097521 -0.09026,0.190208 -8.25363,7.820885 -8.502709,7.947874 -0.182386,0.09298 -0.414607,0.0998 -0.601223,0.01764 z m 3.304568,-4.71725 c 1.634053,-1.607609 2.977634,-2.940063 2.985736,-2.961009 0.0081,-0.02101 -0.987595,-0.03809 -2.220757,-0.03809 H 13.572007 V 7.0183059 2.3627207 l -0.66994,-0.028997 C 12.533601,2.3177751 11.807711,2.3047264 11.28898,2.3047264 h -0.943148 v 4.6841661 4.6841655 l -2.1738081,0.01147 -2.1738077,0.01146 2.9978938,2.949961 c 1.648842,1.622479 3.015333,2.949961 3.036647,2.949961 0.02131,0 1.375706,-1.315316 3.009759,-2.922925 z"
     id="path10400"
     inkscape:connector-curvature="0" />
  <path
     style="opacity:1;fill:#ca3939;fill-opacity:1;stroke:none;stroke-width:1.6274035;stroke-linecap:round;stroke-linejoin:miter;stroke-miterlimit:4;stroke-dasharray:none;stroke-dashoffset:0;stroke-opacity:1"
     d="M 11.737948,19.390472 C 11.624302,19.340641 8.318315,16.268609 4.6128742,12.769618 L 3.5424019,11.758787 3.4527771,11.468616 c -0.178697,-0.578554 -0.091204,-1.003593 0.2464322,-1.197163 l 0.1721761,-0.09871 2.4638252,-7.27e-4 2.4638252,-7.27e-4 V 5.8388407 c 0,-3.7988318 0.00837,-4.3524866 0.067977,-4.4951396 C 8.9547292,1.1337655 9.0477354,1.0333716 9.2502653,0.93000428 9.405717,0.850665 9.5503217,0.8463272 12.034498,0.84648382 c 2.550185,1.6087e-4 2.624178,0.002551 2.766556,0.0893561 0.278274,0.16965878 0.268396,0.029716 0.282585,4.00341168 0.0071,1.9904225 0.01879,3.9814271 0.02596,4.4244538 l 0.01304,0.8055036 2.557568,0.01209 2.557569,0.01209 0.190364,0.133817 c 0.409262,0.287691 0.581295,0.744417 0.413549,1.097916 -0.07092,0.149462 -1.526043,1.524414 -7.086555,6.696136 -0.713555,0.663663 -1.364228,1.234594 -1.445939,1.268736 -0.183656,0.07674 -0.396931,0.07692 -0.571251,4.81e-4 z m 0.660597,-2.137066 c 0.196151,-0.188378 1.547707,-1.515861 3.003458,-2.949961 l 2.64682,-2.607457 -2.238408,-0.01145 -2.238408,-0.01145 V 7.0463564 c 0,-2.544699 -0.01638,-4.6431032 -0.0364,-4.6631206 -0.02002,-0.020017 -0.745907,-0.049084 -1.613087,-0.064592 l -1.576692,-0.028196 v 4.6913055 4.6913047 l -2.173646,0.01147 -2.1736457,0.01146 3.0022865,2.949551 c 1.6512572,1.622253 3.0110152,2.949735 3.0216842,2.949961 0.01067,2.21e-4 0.179884,-0.153717 0.376034,-0.342094 z"
     id="path10402"
     inkscape:connector-curvature="0" />
  <path
     style="opacity:1;fill:#ca3939;fill-opacity:1;stroke:none;stroke-width:1.6274035;stroke-linecap:round;stroke-linejoin:miter;stroke-miterlimit:4;stroke-dasharray:none;stroke-dashoffset:0;stroke-opacity:1"
     d="M 11.737948,19.38984 C 11.665028,19.357519 10.747503,18.528 9.6990033,17.546464 8.6505036,16.564928 6.8470955,14.876864 5.6914292,13.795212 3.2927832,11.550185 3.38811,11.66715 3.3862481,10.966784 3.3854006,10.647994 3.4001689,10.570218 3.483816,10.452952 3.6891368,10.165108 3.6264134,10.171289 6.3418896,10.171289 H 8.7990358 V 5.8388407 c 0,-3.7988318 0.00837,-4.3524866 0.067977,-4.4951396 C 8.9547292,1.1337655 9.0477354,1.0333716 9.2502653,0.93000428 9.405717,0.850665 9.5503217,0.8463272 12.034498,0.84648382 c 2.550185,1.6087e-4 2.624178,0.002551 2.766556,0.0893561 0.08046,0.049055 0.172315,0.15338928 0.204123,0.23185418 0.04501,0.1110277 0.06399,0.8923696 0.08558,3.5235176 0.01526,1.8594699 0.02782,3.8531797 0.0279,4.4304661 l 1.49e-4,1.0496112 h 2.53617 2.53617 l 0.213518,0.143631 c 0.289831,0.194966 0.46636,0.456851 0.492695,0.730925 0.04053,0.421829 0.693385,-0.225595 -7.140599,7.081226 -0.664052,0.619367 -1.28866,1.170868 -1.388019,1.225558 -0.202424,0.11142 -0.432714,0.125006 -0.63079,0.03721 z m 3.284294,-4.713214 c 1.63305,-1.605607 2.969182,-2.938061 2.969182,-2.96101 0,-0.02561 -0.853126,-0.04173 -2.20949,-0.04173 h -2.20949 l -0.01149,-4.2978832 -0.01149,-4.2978834 -0.01083,4.3199805 c -0.006,2.3759892 -0.0059,4.3229061 2.21e-4,4.3264831 0.0061,0.0036 0.988574,0.01849 2.183327,0.03314 l 2.172278,0.02664 -2.54299,2.49697 c -1.398644,1.373334 -2.719122,2.662813 -2.934396,2.865508 l -0.391405,0.368537 -0.682208,-0.655799 C 10.968252,16.498903 9.6506093,15.209425 8.4153707,13.994085 l -2.2458883,-2.209708 2.0992233,-0.02639 c 1.1545728,-0.01452 2.1041953,-0.02943 2.1102713,-0.03314 0.0061,-0.0037 0.01105,-2.1168357 0.01105,-4.6958261 v -4.689073 l 1.381068,0.028042 c 0.759587,0.015423 1.465589,0.03855 1.568893,0.051393 0.103304,0.012843 0.187825,0.00541 0.187825,-0.016524 0,-0.042396 -1.434703,-0.098124 -2.526193,-0.098124 h -0.655787 v 4.6841661 4.684166 l -2.1723016,0.01147 -2.1723011,0.01146 3.0009419,2.948678 c 1.6505178,1.621773 3.0121798,2.949255 3.0259158,2.949961 0.01374,7.07e-4 1.361105,-1.312396 2.994155,-2.918001 z"
     id="path10404"
     inkscape:connector-curvature="0" />
  <path
     style="opacity:1;fill:#ca3939;fill-opacity:1;stroke:none;stroke-width:1.6274035;stroke-linecap:round;stroke-linejoin:miter;stroke-miterlimit:4;stroke-dasharray:none;stroke-dashoffset:0;stroke-opacity:1"
     d="M 11.737948,19.390088 C 11.605622,19.331683 9.8638922,17.718632 5.8672337,13.953099 4.7044183,12.857529 3.7145085,11.927719 3.6674341,11.886855 3.4856876,11.729087 3.3866021,11.413042 3.3859041,10.988881 3.3853424,10.647579 3.3992371,10.571525 3.483816,10.452952 3.6891315,10.165115 3.6265015,10.171289 6.3410583,10.171289 H 8.7973732 L 8.809253,5.7594658 8.8211329,1.3476422 8.945227,1.1849608 c 0.068252,-0.089475 0.2016996,-0.20227256 0.29655,-0.25066178 0.1664609,-0.0849219 0.2635457,-0.0879747 2.792721,-0.0878152 2.550185,1.6087e-4 2.624178,0.002551 2.766556,0.0893561 0.08046,0.049055 0.172326,0.15338928 0.204147,0.23185418 0.06943,0.1712039 0.112959,2.665641 0.113347,6.4955758 l 2.55e-4,2.5080191 h 2.546924 2.546923 l 0.204164,0.146641 c 0.286296,0.205633 0.454898,0.461027 0.480542,0.727915 0.02851,0.296692 -0.06448,0.475017 -0.424884,0.81478 -0.532564,0.502067 -6.196329,5.785248 -7.111509,6.633642 -0.49283,0.456865 -0.964517,0.859269 -1.048193,0.894231 -0.187294,0.07826 -0.399788,0.07885 -0.574822,0.0016 z m 3.926484,-5.353069 c 2.0896,-2.05432 2.324576,-2.299128 2.231806,-2.325189 -0.05703,-0.01602 -1.053074,-0.03111 -2.213435,-0.03353 l -2.109746,-0.0044 -0.01211,-1.690427 -0.01211,-1.6904271 -0.01051,1.7125241 -0.01051,1.712524 0.298311,0.0063 c 0.164071,0.0035 1.148184,0.01839 2.186917,0.03314 l 1.888607,0.02683 -2.662005,2.6112 c -1.464102,1.43616 -2.786105,2.725829 -2.937783,2.86593 l -0.275777,0.254729 -0.525794,-0.501541 C 11.211101,16.738847 9.891997,15.449178 8.5689459,14.148765 l -2.4055476,-2.364388 1.8150034,-0.02698 c 0.9982513,-0.01484 1.9492428,-0.02976 2.1133133,-0.03315 l 0.298311,-0.0062 V 7.0273595 2.3366335 l 1.469456,0.031441 c 0.808201,0.017293 1.519175,0.0412 1.579942,0.053127 0.08433,0.016552 0.09452,0.011355 0.04304,-0.021957 -0.03849,-0.024904 -0.726335,-0.057411 -1.602038,-0.07571 L 10.345832,2.2914684 V 6.9826796 11.673891 H 8.2024144 c -1.1788796,0 -2.1434174,0.01644 -2.1434174,0.03654 0,0.0201 0.9098475,0.929862 2.0218834,2.021698 1.1120359,1.091836 2.4551276,2.411272 2.9846476,2.932078 l 0.962764,0.946921 0.650323,-0.639026 c 0.357678,-0.351463 1.701295,-1.672252 2.985817,-2.935085 z m -2.10643,-5.8627539 c -0.01411,-0.035255 -0.02458,-0.024783 -0.0267,0.026701 -0.0019,0.046588 0.0085,0.07269 0.02321,0.058005 0.01469,-0.014686 0.01625,-0.052803 0.0035,-0.084706 z"
     id="path10406"
     inkscape:connector-curvature="0" />
  <path
     style="opacity:1;fill:#ca3939;fill-opacity:1;stroke:none;stroke-width:1.6274035;stroke-linecap:round;stroke-linejoin:miter;stroke-miterlimit:4;stroke-dasharray:none;stroke-dashoffset:0;stroke-opacity:1"
     d="M 11.737948,19.390458 C 11.61133,19.334926 10.277251,18.102902 6.2357737,14.309194 3.6252371,11.858701 3.585291,11.819277 3.4795133,11.588995 3.3457309,11.297745 3.3441315,10.631932 3.4767794,10.450891 3.6865468,10.164596 3.6166224,10.171434 6.3352106,10.171358 l 2.4638252,-6.9e-5 V 5.8210402 c 0,-2.9740646 0.014912,-4.3896061 0.047138,-4.4746601 0.063511,-0.1676227 0.2061641,-0.3144707 0.4040916,-0.41597402 0.1557447,-0.0798705 0.295374,-0.0840792 2.7842326,-0.0839223 2.550185,1.6087e-4 2.624178,0.002551 2.766556,0.0893561 0.08046,0.049055 0.172348,0.15338932 0.204197,0.23185422 0.07946,0.1957612 0.112668,1.9075517 0.113157,5.8326632 l 3.95e-4,3.1709317 h 2.546924 2.546923 l 0.204164,0.146641 c 0.423778,0.30438 0.594534,0.749667 0.424713,1.107539 -0.07668,0.161581 -0.888448,0.933949 -5.325642,5.06713 -2.921512,2.721346 -3.038522,2.827128 -3.203378,2.896009 -0.186757,0.07803 -0.399296,0.07872 -0.574559,0.0019 z m 4.674776,-6.096482 c 0.758904,-0.749662 1.008886,-1.008198 0.555516,-0.574524 -0.453371,0.433673 -1.741781,1.688401 -2.863133,2.788284 -1.121352,1.099882 -2.05464,1.999786 -2.073974,1.999786 -0.03526,0 -1.417087,-1.342807 -4.3306619,-4.208382 l -1.5626036,-1.53686 0.9659822,-8.9e-5 c 0.5312902,-4.4e-5 1.4880259,-0.01319 2.1260793,-0.02919 l 1.160097,-0.0291 V 7.0274302 2.35096 L 11.174473,2.337805 11.958919,2.32465 11.152376,2.31469 10.345832,2.30473 v 4.6845824 4.6845826 l -1.867204,0.0052 c -1.0269621,0.0028 -1.9925349,0.01776 -2.1457174,0.03314 l -0.2785136,0.02798 1.845739,1.811962 c 1.0151565,0.996578 2.359041,2.316077 2.986411,2.93222 l 1.140672,1.120259 1.502839,-1.473813 c 0.826561,-0.810596 2.123761,-2.087172 2.882666,-2.836834 z m 1.313535,-1.577742 c -0.133688,-0.01848 -1.122364,-0.03557 -2.19706,-0.03797 l -1.953992,-0.0044 -0.01445,-0.430893 -0.01445,-0.430893 -0.0092,0.451971 -0.0092,0.45197 0.784447,0.01315 c 1.63145,0.02736 3.650256,0.01969 3.414,-0.01297 z m -4.168257,-1.022901 c -0.01411,-0.03526 -0.02458,-0.02478 -0.0267,0.0267 -0.0019,0.04659 0.0085,0.07269 0.02321,0.058 0.01469,-0.01469 0.01625,-0.0528 0.0035,-0.08471 z M 13.096919,2.3603935 c -0.151917,-0.00863 -0.40051,-0.00863 -0.552427,0 -0.151917,0.00863 -0.02762,0.015691 0.276214,0.015691 0.303835,0 0.428131,-0.00706 0.276213,-0.015691 z"
     id="path10408"
     inkscape:connector-curvature="0" />
  <path
     style="opacity:1;fill:#ca3939;fill-opacity:1;stroke:none;stroke-width:1.6274035;stroke-linecap:round;stroke-linejoin:miter;stroke-miterlimit:4;stroke-dasharray:none;stroke-dashoffset:0;stroke-opacity:1"
     d="M 11.693754,19.370718 C 11.547656,19.281443 10.809414,18.598528 7.0323364,15.058649 3.5748605,11.818301 3.5926571,11.835668 3.4814695,11.593417 3.3457486,11.297713 3.3430218,10.633446 3.4767794,10.450891 3.6865468,10.164596 3.6166224,10.171434 6.3352106,10.171358 l 2.4638252,-6.9e-5 V 5.8210402 c 0,-2.9740646 0.014912,-4.3896061 0.047138,-4.4746601 0.063511,-0.1676227 0.2061641,-0.3144707 0.4040916,-0.41597402 0.1557447,-0.0798705 0.295374,-0.0840792 2.7842326,-0.0839223 2.550185,1.6087e-4 2.624178,0.002551 2.766556,0.0893561 0.304805,0.18583472 0.288941,-0.0619798 0.308979,4.82638632 l 0.01807,4.4076748 2.573743,0.01174 2.573743,0.01174 0.202243,0.165739 c 0.385212,0.315683 0.524851,0.726738 0.362852,1.068125 -0.07776,0.163873 -0.906777,0.952891 -5.391989,5.131848 -2.686009,2.502606 -2.948233,2.740891 -3.106069,2.822512 -0.182279,0.09426 -0.485111,0.08918 -0.64887,-0.01089 z m 4.242641,-5.624616 c 0.218761,-0.225014 -0.477297,0.446257 -1.546796,1.491713 -1.069499,1.045456 -2.038812,1.986178 -2.154029,2.090493 l -0.209484,0.189664 -0.387137,-0.365739 C 11.13569,16.676789 6.1505344,11.787845 6.1612753,11.780276 c 0.00996,-0.007 3.4571319,-0.06168 3.9083427,-0.06198 l 0.320408,-2.11e-4 V 7.0348235 2.3515613 l 0.563476,-0.013813 0.563475,-0.013813 -0.585572,-0.0096 -0.585573,-0.0096 V 6.9893177 11.6739 l -1.624136,0.006 c -0.8932748,0.0033 -1.8613512,0.01821 -2.1512809,0.03315 l -0.5271449,0.02715 0.7766112,0.751301 c 0.4271362,0.413216 1.7737027,1.732552 2.9923699,2.931857 l 2.2157587,2.180556 1.755319,-1.724339 c 0.965425,-0.948387 1.934305,-1.908442 2.153066,-2.133455 z m 0.950175,-0.901065 c 0.107349,-0.109381 0.185236,-0.198874 0.173083,-0.198874 -0.01215,0 -0.109929,0.08949 -0.217278,0.198874 -0.107349,0.10938 -0.185236,0.198874 -0.173083,0.198874 0.01215,0 0.109929,-0.08949 0.217278,-0.198874 z m 0.552427,-1.128416 c -0.170148,-0.01746 -1.108443,-0.03422 -2.085101,-0.03724 l -1.775742,-0.0055 -0.01915,-0.09944 c -0.01653,-0.08583 -0.01998,-0.08292 -0.02517,0.02127 l -0.006,0.120704 1.005418,0.01275 c 1.979333,0.0251 3.220414,0.01974 2.905767,-0.01256 z m -4.47466,-9.3554762 c -0.079,-0.0098 -0.208265,-0.0098 -0.287262,0 -0.079,0.0098 -0.01436,0.017825 0.143631,0.017825 0.157994,0 0.222628,-0.00802 0.143631,-0.017825 z"
     id="path10410"
     inkscape:connector-curvature="0" />
</svg>
