<svg width="23.999999999999996" height="23.999999999999996" xmlns="http://www.w3.org/2000/svg">
 <g>
  <title>background</title>
  <rect x="-1" y="-1" width="3.148087" height="3.148087" id="canvas_background" fill="none"/>
 </g>

 <g>
  <title>Layer 1</title>
  <path stroke="null" d="m11.454859,0.39183l-7.554096,9.7c0,0 -0.467264,0.4 -0.467264,1s0.311509,1 0.778773,1l4.59476,0l0,11c0,0.6 0.467264,1 0.85665,1l4.672637,0c0.467264,0 0.700896,-0.4 0.700896,-1l0,-11l4.750514,0c0.467264,0 0.778773,-0.4 0.778773,-1s-0.467264,-1 -0.467264,-1l-7.554096,-9.7c-0.311509,-0.4 -0.778773,-0.4 -1.090282,0l-0.000001,0zm6.463814,9.7l-4.439005,0l0,12l-3.115091,0l0,-12l-4.283251,0l5.918674,-7.6l5.918674,7.6l-0.000001,0z" id="svg_1" fill="#36274b"/>
  <rect id="svg_6" height="4.974958" width="5.070631" y="18.392104" x="9.440767" fill-opacity="null" stroke-opacity="null" stroke-width="null" stroke="null" fill="#36274b"/>
  <path stroke="null" d="m11.66099,2.176715l-5.360593,7.089941c0,0 -0.331584,0.292369 -0.331584,0.730922s0.221056,0.730921 0.552639,0.730921l3.260567,0l0,8.040139c0,0.438554 0.331583,0.730922 0.607902,0.730922l3.315831,0c0.331584,0 0.497376,-0.292369 0.497376,-0.730922l0,-8.040139l3.371094,0c0.331583,0 0.552638,-0.292369 0.552638,-0.730921s-0.331583,-0.730922 -0.331583,-0.730922l-5.360593,-7.089941c-0.221056,-0.292369 -0.552639,-0.292369 -0.773694,0l-0.000001,0zm4.586899,7.089941l-3.15004,0l0,8.771061l-2.210553,0.045836l0,-8.816897l-3.039512,0l4.200053,-5.555004l4.200053,5.555004l0,0z" id="svg_3" fill="#7cf04f"/>
 </g>
</svg>