<svg width="8.4666665" height="8.4666669" xmlns="http://www.w3.org/2000/svg">

 <g>
  <title>background</title>
  <rect fill="none" id="canvas_background" height="402" width="582" y="-1" x="-1"/>
 </g>
 <g>
  <title>Layer 1</title>
  <path clip-rule="nonzero" fill="#ffffff" fill-rule="nonzero" stroke-width="2" stroke-linecap="round" stroke-linejoin="round" stroke-miterlimit="4" stroke-dashoffset="0" id="path893" d="m4.228682,0.261477c-0.435237,0 -0.793226,0.357994 -0.793231,0.793234c-0.000003,0.235842 0.107363,0.446979 0.272852,0.593246c-1.061773,0.239583 -1.856219,1.186857 -1.856219,2.320787c0,0.761315 -0.008173,1.715288 -0.447519,2.670122c-0.347988,0.08387 -0.611849,0.397589 -0.611849,0.769461c0,0.43516 0.36014,0.794785 0.7953,0.794785l5.290635,0c0.43516,0 0.7953,-0.359624 0.7953,-0.794785c0,-0.371872 -0.263861,-0.685591 -0.611849,-0.769461c-0.439346,-0.954842 -0.447519,-1.908807 -0.447519,-2.670122c0,-1.136542 -0.797986,-2.086007 -1.863452,-2.322856c0.164174,-0.146209 0.270269,-0.35642 0.270269,-0.591177c-0.000008,-0.43524 -0.357479,-0.793234 -0.792718,-0.793234zm0,0.529167c0.149259,0 0.265615,0.114808 0.265618,0.264067c0,0.149259 -0.116358,0.265615 -0.265618,0.265615c-0.149259,0 -0.264067,-0.116356 -0.264065,-0.265615c0,-0.149259 0.114808,-0.264067 0.264065,-0.264067zm0.004651,1.326018c1.030631,0 1.852083,0.821455 1.852083,1.852083c0,0.70271 0.020344,1.658252 0.40876,2.645833l-4.521687,0c0.388416,-0.987581 0.40876,-1.943124 0.40876,-2.645833c0,-1.030629 0.821452,-1.852083 1.852083,-1.852083zm-2.645317,5.027599l5.290635,0c0.151154,0 0.266134,0.112908 0.266134,0.264067c0,0.151151 -0.11498,0.265618 -0.266134,0.265618l-5.290635,0c-0.151154,0 -0.265615,-0.114467 -0.265615,-0.265618c0,-0.151159 0.114461,-0.264067 0.265615,-0.264067z"/>
 </g>
</svg>